<?xml version="1.0" encoding="UTF-8" standalone="no"?>
<!-- Created with Inkscape (http://www.inkscape.org/) -->

<svg
   width="128.319mm"
   height="120.05042mm"
   viewBox="0 0 128.319 120.05042"
   version="1.1"
   id="svg5"
   xmlns="http://www.w3.org/2000/svg"
   xmlns:svg="http://www.w3.org/2000/svg">
  <defs
     id="defs2">
    <filter
       style="color-interpolation-filters:sRGB"
       id="filter5474"
       x="-0.031103782"
       y="-0.032447778"
       width="1.0622076"
       height="1.0648956">
      <feGaussianBlur
         stdDeviation="1.4617712"
         id="feGaussianBlur5476" />
    </filter>
    <filter
       style="color-interpolation-filters:sRGB"
       id="filter6020"
       x="-0.0070834579"
       y="-0.0075683165"
       width="1.014167"
       height="1.0151366">
      <feGaussianBlur
         stdDeviation="0.32797373"
         id="feGaussianBlur6022" />
    </filter>
  </defs>
  <g
     id="layer1"
     transform="translate(-4.5536681,-4.9454983)">
    <g
       id="g6026"
       transform="translate(-11.374804,-150.13651)">
      <path
         style="mix-blend-mode:normal;fill:#ffb208;fill-opacity:0.996078;stroke-width:0.264583;filter:url(#filter5474)"
         d="m 132.06617,204.41638 1.89098,13.90431 1.66852,-0.44493 2.00222,-5.33926 0.33371,-4.11567 -0.55618,9.45493 -3.2258,5.11678 -1.89098,10.01111 -3.11457,10.12234 -1.66851,12.34702 -14.12679,4.22691 -3.11456,7.45271 1.77975,2.5584 4.22691,-2.5584 -7.11901,5.11679 -8.00888,-0.44494 -17.686289,-3.00333 -9.454933,0.44494 -22.024427,-7.45271 -9.788636,-2.11346 -5.895427,-10.45604 -0.556173,-17.35258 -10.567275,-10.78974 0.111233,-14.57172 0.778643,-14.23802 13.904311,-7.78641 3.44827,-7.56394 9.121227,-3.78198 3.00333,-5.67296 7.897649,-0.22246 6.785303,-3.11457 -6.4516,5.33925 -7.007773,-0.11123 -4.004439,6.7853 -7.563946,2.8921 -3.559505,8.89876 -14.571718,5.22802 1.668518,25.02776 6.562836,9.45493 3.448267,2.5584 0.333706,12.9032 2.558391,5.56172 7.563945,6.00666 7.452712,6.22913 14.349248,2.11346 6.785303,-1.55728 9.677403,6.00666 11.457149,-2.33593 9.566177,3.44827 -0.88988,-5.89543 2.66963,-2.22469 1.11235,-5.00555 3.5595,1.11235 10.45604,-2.11346 0.88988,-9.78863 3.44827,-7.56395 v -8.23135 l 3.00333,-6.7853 z"
         id="path5472" />
      <path
         style="fill:#fffdf8;fill-opacity:0.996078;stroke-width:0.264583;filter:url(#filter6020)"
         d="m 131.5904,211.34553 1.44605,7.67517 -2.00223,5.89543 -1.0011,5.45049 0.11123,6.89654 -2.44716,4.89432 -1.11234,5.89543 -0.22247,4.11567 -4.11568,3.2258 -8.56505,1.55728 -3.00333,3.67074 -1.22359,4.11568 -1.0011,4.67186 -7.89765,-2.55842 -4.338149,0.11126 -9.899869,0.77864 -6.22913,-4.00445 -5.005552,0.44494 -11.345918,-1.33482 -14.126781,-4.67185 -3.670737,-3.5595 -5.228021,-4.56061 -2.002221,-5.45049 -0.667409,-11.12345 -3.00333,-5.78419 -6.340366,-7.00778 -0.889876,-6.4516 -0.444937,-14.12678 -0.222469,-6.7853 10.456042,-5.11679 3.2258,-1.66851 2.335924,-5.89543 3.670739,-3.2258 6.340364,-2.44716 2.66963,-5.00555 5.005551,-0.55618 5.116785,-2.66962 -8.787524,1.66851 -3.00333,0.33371 -1.890988,4.89432 -7.230239,3.2258 -2.66963,2.44715 -2.002221,5.22802 -7.45271,4.67185 -5.895427,2.66963 -1.446049,3.11457 0.778641,9.78863 -1.00111,12.68073 1.668518,5.33926 6.4516,4.78308 2.669627,5.22802 0.667407,5.67296 -0.667407,6.1179 4.449379,7.56394 3.44827,4.44938 3.781972,2.44716 9.121228,3.33704 9.232463,1.89098 3.670739,1.891 6.340364,-0.11126 6.340366,1.55729 7.007773,2.11346 8.89876,-1.0011 6.229128,1.55728 5.56173,0.44492 0.88987,-7.00776 2.11346,-3.78197 3.89321,-2.00222 8.34258,-3.55951 1.89099,-1.77975 0.6674,-5.11679 1.66852,-7.119 1.33481,-3.78198 0.11124,-5.56172 2.11346,-9.23246 3.2258,-4.11568 -2.11346,1.11235 -0.88987,-2.8921 -0.66741,-2.78086 z"
         id="path5478" />
    </g>
  </g>
</svg>
