<?xml version="1.0" encoding="UTF-8" standalone="no"?>
<!-- Created with Inkscape (http://www.inkscape.org/) -->

<svg
   width="128.319mm"
   height="120.05042mm"
   viewBox="0 0 128.319 120.05042"
   version="1.1"
   id="svg5"
   xmlns="http://www.w3.org/2000/svg"
   xmlns:svg="http://www.w3.org/2000/svg">
  <defs
     id="defs2">
    <filter
       style="color-interpolation-filters:sRGB"
       id="filter8068"
       x="-0.05275337"
       y="-0.032007664"
       width="1.1055067"
       height="1.0640153">
      <feGaussianBlur
         stdDeviation="1.5843585"
         id="feGaussianBlur8070" />
    </filter>
    <filter
       style="color-interpolation-filters:sRGB"
       id="filter8722"
       x="-0.016015867"
       y="-0.0088907601"
       width="1.0320317"
       height="1.0177815">
      <feGaussianBlur
         stdDeviation="0.42236793"
         id="feGaussianBlur8724" />
    </filter>
  </defs>
  <g
     id="layer1"
     transform="translate(-4.5536681,-4.9454983)">
    <g
       id="g8737"
       transform="translate(-21.844472,-164.71318)">
      <path
         style="fill:#ffb208;fill-opacity:0.996078;stroke-width:0.264583;filter:url(#filter8068)"
         d="m 85.873024,175.75049 -13.570608,-3.33703 -6.67407,15.12789 -17.575048,3.33703 -1.779752,11.79086 -11.790854,11.34591 -8.008885,14.90542 6.89654,10.01111 -2.002222,18.46492 11.123449,7.34148 17.797518,2.22469 6.674069,19.57727 4.004442,4.67185 -2.669627,-9.12123 -3.559506,-12.68073 -5.561724,-7.34148 -15.12789,-3.5595 -7.563946,-4.44938 2.002221,-13.57061 -6.22913,-13.12567 5.339255,-7.34147 5.339257,-9.12123 6.674067,-4.00444 2.892097,-9.12123 4.004442,-4.89432 h 8.008884 l 4.449379,-6.4516 4.449379,-9.3437 13.793076,3.33704 11.34592,-0.66741 z"
         id="path8066" />
      <g
         id="g8731">
        <g
           id="g8727">
          <path
             style="fill:#ffffff;fill-opacity:0.996078;stroke-width:0.264583;filter:url(#filter8722)"
             d="m 68.854147,288.43102 -6.562833,-21.13455 -3.44827,-4.44938 -19.799739,-5.45049 -4.671848,-4.22691 1.557282,-8.45382 0.111236,-5.89543 -5.89543,-11.56838 0.667409,-1.55729 2.780861,-3.00333 6.006663,-9.89987 7.230242,-4.78308 3.00333,-7.78641 1.668519,-8.23136 11.679621,-1.77975 4.671848,-2.78086 4.449379,-9.89987 4.004442,-2.22469 13.904309,3.5595 1.668518,-0.11123 -18.019987,-4.33814 -2.447158,2.33592 -2.780863,6.56284 -4.338143,5.45048 -12.013327,2.00222 -3.893206,2.44717 -0.333703,6.22913 -4.226912,8.78752 -8.342585,7.34148 -4.115676,6.89653 -2.780863,5.89543 3.559503,6.89654 2.44716,7.67518 -2.22469,10.67851 3.337033,4.44938 14.238015,5.00555 7.563945,1.44605 3.670739,2.22468 z"
             id="path8072" />
        </g>
      </g>
    </g>
  </g>
</svg>
