<?xml version="1.0" encoding="UTF-8" standalone="no"?>
<!-- Created with Inkscape (http://www.inkscape.org/) -->

<svg
   width="128.319mm"
   height="120.05042mm"
   viewBox="0 0 128.319 120.05042"
   version="1.1"
   id="svg5"
   xmlns="http://www.w3.org/2000/svg"
   xmlns:svg="http://www.w3.org/2000/svg">
  <defs
     id="defs2">
    <filter
       style="color-interpolation-filters:sRGB"
       id="filter2581"
       x="-0.049192727"
       y="-0.050612427"
       width="1.0983855"
       height="1.1012249">
      <feGaussianBlur
         stdDeviation="2.2989717"
         id="feGaussianBlur2583" />
    </filter>
    <filter
       style="color-interpolation-filters:sRGB"
       id="filter4693"
       x="-0.0043715783"
       y="-0.0044835508"
       width="1.0087432"
       height="1.008967">
      <feGaussianBlur
         stdDeviation="0.19471072"
         id="feGaussianBlur4695" />
    </filter>
    <filter
       style="color-interpolation-filters:sRGB"
       id="filter4969"
       x="-0.15504169"
       y="-0.17657527"
       width="1.3100834"
       height="1.3531505">
      <feGaussianBlur
         stdDeviation="0.83330796"
         id="feGaussianBlur4971" />
    </filter>
    <filter
       style="color-interpolation-filters:sRGB"
       id="filter5137"
       x="-0.034329243"
       y="-0.032668147"
       width="1.0686585"
       height="1.0653363">
      <feGaussianBlur
         stdDeviation="0.099568197"
         id="feGaussianBlur5139" />
    </filter>
    <filter
       style="color-interpolation-filters:sRGB"
       id="filter5203"
       x="-0.1616285"
       y="-0.46949232"
       width="1.323257"
       height="1.9389846">
      <feGaussianBlur
         stdDeviation="1.2924713"
         id="feGaussianBlur5205" />
    </filter>
    <filter
       style="color-interpolation-filters:sRGB"
       id="filter5207"
       x="-0.26646852"
       y="-0.13789284"
       width="1.532937"
       height="1.2757857">
      <feGaussianBlur
         stdDeviation="1.2924713"
         id="feGaussianBlur5209" />
    </filter>
    <filter
       style="color-interpolation-filters:sRGB"
       id="filter5211"
       x="-0.85733467"
       y="-0.15168214"
       width="2.7146692"
       height="1.3033643">
      <feGaussianBlur
         stdDeviation="1.2924713"
         id="feGaussianBlur5213" />
    </filter>
    <filter
       style="color-interpolation-filters:sRGB"
       id="filter5437"
       x="-0.054452691"
       y="-0.01854548"
       width="1.1089054"
       height="1.037091">
      <feGaussianBlur
         stdDeviation="0.11861659"
         id="feGaussianBlur5439" />
    </filter>
    <filter
       style="color-interpolation-filters:sRGB"
       id="filter5443"
       x="-0.016860345"
       y="-0.025589464"
       width="1.0337207"
       height="1.0511789">
      <feGaussianBlur
         stdDeviation="0.083613892"
         id="feGaussianBlur5445" />
    </filter>
    <filter
       style="color-interpolation-filters:sRGB"
       id="filter5449"
       x="-0.10002616"
       y="-0.022733193"
       width="1.2000523"
       height="1.0454664">
      <feGaussianBlur
         stdDeviation="0.081129554"
         id="feGaussianBlur5451" />
    </filter>
    <filter
       style="color-interpolation-filters:sRGB"
       id="filter5455"
       x="-0.029379508"
       y="-0.057543322"
       width="1.058759"
       height="1.1150866">
      <feGaussianBlur
         stdDeviation="0.096678777"
         id="feGaussianBlur5457" />
    </filter>
  </defs>
  <g
     id="layer1"
     transform="translate(-4.5536681,-4.9454983)">
    <g
       id="g9787"
       transform="translate(-42.222748,-181.83519)">
      <path
         style="mix-blend-mode:normal;fill:#ffb208;fill-opacity:0.995423;stroke-width:0.264583;filter:url(#filter2581)"
         d="m 107.82414,197.17481 -17.146717,4.87659 -11.326273,14.94438 -12.742053,10.0678 -5.505828,19.03443 9.595868,21.70869 4.090043,14.94439 26.58528,10.53972 25.79872,3.30349 15.57363,-10.38241 15.73093,-3.93273 -3.61811,-21.23676 3.61811,-15.41631 -5.19121,-17.46134 v -12.27013 l -15.88824,-9.28125 -19.50635,-1.41579 21.55137,-5.50582 9.75318,8.96663 9.28125,3.30349 -0.31462,13.68592 6.29237,10.85434 -3.30349,14.31515 3.14618,11.7982 -2.04502,13.37129 -2.20233,14.31515 -14.47246,-2.67426 -13.05667,13.68591 -14.31515,-1.88771 -23.439085,-5.1912 -21.551378,-3.3035 -3.460806,-8.65201 -10.382413,-14.15784 -1.730402,-12.42744 -5.348518,-14.47246 8.022776,-12.11282 2.831568,-10.85434 12.427436,-6.60699 7.393538,-12.74206 8.494702,-2.20233 2.67426,-4.40466 z"
         id="path395" />
      <g
         id="g5470"
         transform="translate(20.032691,139.61245)">
        <path
           style="fill:#000000;stroke-width:0.264583"
           d="M 85.104342,82.115466 44.518537,85.104342"
           id="path286" />
        <path
           style="fill:#ffeec8;fill-opacity:0.995423;stroke-width:0.264583;filter:url(#filter4693)"
           d="m 83.982038,56.28465 -7.230242,-1.223578 -4.894318,3.781972 -7.897649,2.335924 -6.785303,11.902091 -10.789745,5.228021 -3.670739,10.567276 -6.4516,10.011103 2.224691,8.676291 4.783081,18.24245 7.007773,13.90432 5.005554,9.00999 15.461594,2.66963 12.45826,3.2258 20.467145,4.67184 10.01111,-2.00222 9.12122,-8.23135 4.22692,-3.11456 11.45715,1.22358 3.78197,-9.3437 -0.55617,-16.35147 -1.22358,-10.12234 2.66962,-12.791964 -5.45049,-11.679621 0.11124,-11.568388 -6.22913,-5.895427 -9.12123,-5.116785 -3.67074,-3.003333 -12.79196,3.448269 12.79196,-0.667406 11.01222,6.562834 4.89431,3.893208 0.22247,6.785303 1.55729,8.342585 3.33703,7.675182 -0.22247,7.007773 -1.55728,10.78974 0.88987,9.89987 0.66741,9.56617 -1.66852,9.00999 -5.78419,0.66741 -7.45271,1.66852 -10.23357,7.78641 -7.11901,2.66963 -9.6774,-0.11124 -7.563945,-1.66851 -21.690724,-4.67185 -10.567279,-3.55951 -4.783082,-7.23024 -3.2258,-4.22691 -0.667406,-6.34036 -4.338145,-7.78642 -4.338145,-11.67962 -0.111236,-10.900977 3.670739,-7.341476 2.669627,-10.678512 11.457154,-5.228021 6.674067,-11.790854 6.785306,-3.2258 5.561724,-3.559506 z"
           id="path4093" />
        <path
           style="fill:#ffb208;fill-opacity:0.996078;stroke-width:0.264583;filter:url(#filter4969)"
           d="m 45.462393,69.845337 6.764301,-2.202328 2.045022,-4.247354 4.090041,-4.876588 -5.348515,3.303495 -1.887713,3.775424 z"
           id="path4697" />
        <path
           style="fill:#ffffff;fill-opacity:0.996078;stroke-width:0.264583;filter:url(#filter5137)"
           d="m 48.647908,68.114936 2.949548,-2.005695 1.651749,-3.500131 2.359639,-1.809057 -1.88771,1.966365 -1.415785,3.736097 z"
           id="path4973" />
        <path
           style="fill:#ffb208;fill-opacity:0.996078;stroke-width:0.264583;filter:url(#filter5207)"
           d="m 35.551906,131.82521 2.359641,6.60699 -0.15731,10.38242 9.43856,5.50582 -6.135065,-7.39354 -0.629238,-10.69703 z"
           id="path5141" />
        <path
           style="fill:#ffb208;fill-opacity:0.996078;stroke-width:0.264583;filter:url(#filter5211)"
           d="m 150.2304,117.51006 -1.88771,-7.70816 2.04502,-5.50582 -0.31462,-5.663137 1.88771,7.393537 -2.51695,4.87659 1.10117,8.18008 z"
           id="path5199" />
        <path
           style="fill:#ffb208;fill-opacity:0.996078;stroke-width:0.264583;filter:url(#filter5203)"
           d="m 94.542902,58.204449 8.022778,-0.943857 5.34851,-3.303494 4.71928,0.629237 -6.29237,-2.202331 -4.71928,3.618114 -8.180084,2.988876 z"
           id="path5201" />
        <path
           style="fill:#ffffff;fill-opacity:0.996078;stroke-width:0.264583;filter:url(#filter5437)"
           d="m 37.486023,135.92854 1.724134,2.16908 -0.500555,7.45271 4.004442,5.72857 -2.892096,-6.06228 -0.05562,-7.45271 z"
           id="path5219" />
        <path
           style="fill:#ffffff;fill-opacity:0.996078;stroke-width:0.264583;filter:url(#filter5443)"
           d="m 123.91522,163.76497 2.8921,-4.22691 9.00999,-3.61512 -6.97997,1.33482 -2.08564,1.50166 z"
           id="path5441" />
        <path
           style="fill:#ffffff;fill-opacity:0.996078;stroke-width:0.264583;filter:url(#filter5449)"
           d="m 150.72273,103.33684 -0.80645,3.44827 -1.14015,3.19799 0.75083,1.91879 -0.16685,-2.00222 1.33481,-3.11456 z"
           id="path5447" />
        <path
           style="fill:#ffffff;fill-opacity:0.996078;stroke-width:0.264583;filter:url(#filter5455)"
           d="m 100.86187,57.0911 3.58731,-1.251386 2.50278,-1.86318 1.80756,0.139044 -3.00333,-1.056728 -1.36262,1.974414 z"
           id="path5453" />
      </g>
    </g>
  </g>
</svg>
