<?xml version="1.0" encoding="UTF-8" standalone="no"?>
<!-- Created with Inkscape (http://www.inkscape.org/) -->

<svg
   width="128.319mm"
   height="120.05042mm"
   viewBox="0 0 128.319 120.05042"
   version="1.1"
   id="svg5"
   xmlns="http://www.w3.org/2000/svg"
   xmlns:svg="http://www.w3.org/2000/svg">
  <defs
     id="defs2">
    <filter
       style="color-interpolation-filters:sRGB"
       id="filter6756"
       x="-0.035919495"
       y="-0.032918002"
       width="1.071839"
       height="1.065836">
      <feGaussianBlur
         stdDeviation="1.5750688"
         id="feGaussianBlur6758" />
    </filter>
    <filter
       style="color-interpolation-filters:sRGB"
       id="filter8058"
       x="-0.013647857"
       y="-0.012428261"
       width="1.0272957"
       height="1.0248564">
      <feGaussianBlur
         stdDeviation="0.57430515"
         id="feGaussianBlur8060" />
    </filter>
  </defs>
  <g
     id="layer1"
     transform="translate(-4.5536681,-4.9454983)">
    <g
       id="g8064"
       transform="translate(-17.603935,-165.00931)">
      <path
         style="mix-blend-mode:normal;fill:#ffb208;fill-opacity:0.996078;stroke-width:0.264583;filter:url(#filter6756)"
         d="m 89.037076,179.33262 -16.832099,-3.77542 -3.618113,4.40466 -9.438558,3.46081 -4.561972,10.38241 -8.809321,3.61812 -5.977755,9.75317 3.932732,12.27013 -6.606989,8.96663 -4.404662,13.84322 4.71928,9.28125 14.157838,4.24735 4.247351,16.51748 9.75318,8.18008 13.371292,-0.47192 10.697033,-5.97776 9.281251,2.83157 12.742046,-3.4608 11.32627,0.62923 10.22511,-1.41578 -3.77542,4.09004 -11.01166,2.20233 -8.80932,-1.7304 -7.55085,3.93273 -11.955498,-0.94385 -11.326272,4.87658 -13.213982,1.10117 -12.270129,-4.56197 -4.404659,-9.28125 -5.977755,-12.74206 -11.168962,-5.1912 -3.775424,-11.01165 0.943856,-8.96664 4.404661,-6.92161 -1.415782,-7.39353 6.7643,-3.61812 -2.202331,-9.43856 5.348518,-10.85434 2.359639,-6.92161 6.921611,0.62924 3.775421,-8.80932 8.652013,-3.93274 4.247353,-5.82044 4.56197,0.62923 2.359639,0.62924 10.225106,1.88771 z"
         id="path6754" />
      <path
         style="fill:#ffffff;fill-opacity:0.996078;stroke-width:0.264583;filter:url(#filter8058)"
         d="M 85.89089,177.60222 73.306143,173.19756 H 67.32839 l -1.730404,5.34852 -9.28125,3.93273 -2.20233,6.60699 -7.078919,3.77543 -5.505826,7.39353 -3.932732,8.96664 1.887709,9.12394 -5.663133,2.35964 0.157308,3.30349 -2.831569,10.85434 -1.730401,7.86547 2.674257,10.53973 12.742056,4.09004 3.618116,7.39353 3.932732,11.95551 5.191207,3.61813 7.393538,3.77542 13.056674,-0.94385 6.921611,-3.30351 6.449682,-2.83157 9.281254,2.98889 8.80932,-3.61812 6.29237,-0.47194 7.07892,0.94388 7.55085,-1.88773 -9.12394,0.62923 -8.65202,-1.57308 -8.65201,2.51693 -3.93273,2.20234 -8.652014,-3.6181 -5.663137,3.30349 -12.899363,4.09003 -10.854343,-1.57308 -6.606993,-7.23622 -4.247351,-12.58476 -1.573093,-3.93273 -14.472457,-5.97775 -2.516949,-7.55085 -0.786548,-6.29238 2.359641,-5.66313 2.359639,-9.75318 5.348518,-2.51695 -3.146187,-9.75318 3.460805,-8.02277 6.292374,-7.86547 4.876588,-2.20233 3.932732,-5.34852 2.988877,-2.98887 8.809323,-5.34852 0.157308,-3.14619 h 4.71928 z"
         id="path6760" />
    </g>
  </g>
</svg>
